<?xml version="1.0" standalone="no"?>
<!DOCTYPE svg PUBLIC "-//W3C//DTD SVG 20010904//EN"
 "http://www.w3.org/TR/2001/REC-SVG-20010904/DTD/svg10.dtd">
<svg version="1.0" xmlns="http://www.w3.org/2000/svg"
 width="512.000000pt" height="512.000000pt" viewBox="0 0 512.000000 512.000000"
 preserveAspectRatio="xMidYMid meet">

<g transform="translate(0.000000,512.000000) scale(0.100000,-0.100000)"
fill="#000000" stroke="none">
<path d="M2471 3802 c-40 -70 -134 -233 -209 -362 -74 -129 -145 -251 -157
-270 -12 -19 -36 -60 -52 -90 -17 -30 -79 -138 -138 -240 -270 -466 -304 -527
-311 -545 -7 -19 222 250 820 963 65 78 124 142 130 142 6 0 25 -30 41 -67 16
-38 49 -111 73 -163 74 -157 101 -219 164 -360 33 -74 70 -157 83 -185 12 -27
50 -110 84 -183 34 -74 59 -137 57 -141 -3 -4 -49 -16 -103 -25 -54 -10 -118
-21 -143 -26 -25 -5 -184 -32 -355 -60 -170 -27 -332 -54 -360 -59 -27 -6
-126 -22 -218 -38 -102 -16 -161 -30 -150 -34 22 -9 1875 -11 1897 -3 14 6 12
14 -15 63 -18 31 -41 72 -52 91 -11 19 -67 116 -124 215 -178 306 -250 429
-270 465 -11 19 -61 106 -112 194 -50 87 -91 160 -91 162 0 2 -15 27 -34 56
-36 58 -216 368 -216 374 0 2 -16 28 -35 58 -19 30 -35 58 -35 61 0 10 -82
135 -88 135 -4 0 -40 -57 -81 -128z"/>
<path d="M2226 2821 c-3 -4 5 -13 18 -19 17 -7 31 -34 55 -104 112 -323 128
-363 148 -366 24 -4 16 -21 103 229 78 225 83 235 110 244 39 12 8 25 -61 25
-72 0 -86 -9 -44 -28 16 -8 25 -20 25 -34 -1 -31 -107 -343 -117 -342 -11 2
-14 12 -72 185 -28 86 -48 164 -45 173 3 9 17 19 30 22 13 3 21 10 18 15 -7
11 -161 12 -168 0z"/>
<path d="M350 1555 c0 -2 13 -11 29 -19 22 -12 34 -30 49 -73 11 -32 48 -139
82 -238 73 -211 75 -215 100 -215 24 0 30 12 68 125 124 366 141 405 179 405
7 0 13 5 13 10 0 6 -37 10 -90 10 -88 0 -119 -12 -60 -23 47 -10 46 -37 -6
-182 -25 -72 -53 -156 -62 -187 -17 -62 -38 -75 -48 -30 -3 15 -31 100 -61
190 -31 95 -51 172 -48 183 4 10 17 22 31 25 53 13 19 24 -76 24 -55 0 -100
-2 -100 -5z"/>
<path d="M2970 1551 c0 -5 13 -11 28 -14 46 -9 52 -38 52 -250 0 -212 -6 -240
-53 -245 -15 -2 -27 -9 -27 -18 0 -12 33 -14 199 -14 110 0 202 4 205 8 2 4 6
39 7 77 2 59 0 71 -14 73 -13 3 -17 -4 -17 -28 0 -35 -15 -69 -39 -87 -21 -16
-173 -17 -189 -1 -9 9 -12 74 -12 230 0 205 1 219 20 238 11 11 26 20 34 20 8
0 18 5 21 10 4 6 -33 10 -104 10 -61 0 -111 -4 -111 -9z"/>
<path d="M3460 1551 c0 -5 12 -12 27 -16 15 -3 31 -12 35 -18 4 -7 8 -112 8
-233 0 -231 -1 -237 -44 -245 -11 -2 -20 -8 -20 -14 -1 -6 32 -11 73 -13 79
-3 113 10 68 27 -18 7 -28 20 -32 43 -10 53 -1 393 10 391 9 -1 154 -385 155
-409 0 -7 8 -22 19 -35 15 -19 21 -21 34 -11 8 7 17 23 20 35 2 12 23 74 46
137 23 63 54 149 68 190 53 156 66 131 61 -129 l-3 -183 -28 -22 c-15 -12 -24
-25 -21 -29 4 -4 47 -7 96 -7 72 0 88 3 88 15 0 8 -9 15 -19 15 -11 0 -27 7
-35 16 -14 14 -16 46 -14 237 l3 222 32 15 c18 8 33 19 33 23 0 4 -37 7 -81 5
l-82 -3 -39 -110 c-22 -60 -55 -152 -74 -204 -31 -88 -48 -121 -57 -110 -5 5
-36 89 -101 269 -24 69 -48 133 -51 143 -6 14 -20 17 -91 17 -46 0 -84 -4 -84
-9z"/>
<path d="M4200 1550 c0 -5 7 -10 15 -10 8 0 24 -9 35 -20 19 -19 20 -33 20
-228 0 -221 -6 -252 -51 -252 -11 0 -19 -7 -19 -16 0 -14 17 -16 148 -12 121
3 155 7 192 24 88 40 140 133 140 252 0 129 -67 236 -162 260 -58 15 -318 16
-318 2z m311 -43 c51 -34 80 -94 86 -180 11 -141 -26 -229 -112 -268 -55 -26
-131 -25 -145 0 -11 21 -14 409 -4 449 6 20 12 22 74 22 53 0 74 -5 101 -23z"/>
<path d="M1734 1478 c-11 -26 -30 -48 -46 -56 -34 -16 -36 -29 -5 -34 21 -3
22 -7 27 -158 8 -206 14 -219 113 -220 43 0 57 4 57 14 0 10 -13 16 -37 18
-59 5 -73 42 -73 199 0 84 4 129 12 137 7 7 31 12 55 12 32 0 43 4 43 15 0 11
-12 15 -49 15 -54 0 -61 8 -61 66 0 46 -13 43 -36 -8z"/>
<path d="M986 1420 c-71 -23 -106 -89 -106 -205 0 -93 22 -144 79 -182 62 -42
193 -26 221 26 13 26 -5 38 -25 17 -22 -21 -82 -36 -117 -29 -56 11 -116 122
-85 161 6 8 45 12 128 12 l119 0 0 48 c0 53 -24 107 -61 134 -28 22 -112 31
-153 18z m100 -35 c27 -18 46 -65 42 -101 l-3 -29 -87 -3 -88 -3 0 31 c0 85
79 146 136 105z"/>
<path d="M1410 1422 c-34 -9 -61 -31 -85 -67 -17 -25 -20 -47 -20 -136 0 -96
2 -109 25 -141 13 -20 39 -43 57 -52 65 -31 191 -12 207 31 11 27 -5 34 -31
13 -18 -14 -41 -20 -75 -20 -93 0 -123 44 -123 180 1 121 30 170 103 170 33 0
56 -22 66 -62 8 -33 16 -34 46 -10 27 22 21 54 -13 77 -26 17 -121 27 -157 17z"/>
<path d="M2070 1420 c-71 -18 -110 -91 -110 -210 0 -127 63 -200 172 -200 122
0 178 66 178 211 0 81 -25 147 -68 177 -34 25 -119 36 -172 22z m128 -45 c50
-42 66 -153 37 -253 -18 -61 -44 -82 -100 -82 -56 0 -82 21 -100 82 -42 142 7
278 100 278 21 0 44 -9 63 -25z"/>
<path d="M2594 1420 c-12 -4 -30 -21 -41 -36 -23 -31 -43 -25 -43 12 0 23 -3
24 -61 24 -37 0 -58 -4 -54 -10 3 -5 12 -10 19 -10 7 0 20 -8 29 -18 24 -27
25 -303 1 -326 -8 -9 -22 -16 -30 -16 -8 0 -14 -7 -14 -15 0 -13 16 -15 103
-13 59 2 102 7 102 13 0 6 -12 11 -28 13 -49 6 -61 39 -55 156 4 69 12 116 23
140 28 59 88 71 101 20 12 -46 64 -23 64 28 0 21 -6 31 -26 38 -30 12 -61 12
-90 0z"/>
</g>
</svg>
